<svg width="30" height="47" viewBox="0 0 30 47" fill="none" xmlns="http://www.w3.org/2000/svg">
<path d="M20.6323 28.4637L29.0643 27.1116C30.3119 27.0103 30.3119 25.3119 29.0643 25.2106L20.6323 23.8585C20.3115 23.8327 20.1551 23.4809 20.3611 23.2506L23.1987 20.1007C24.0047 19.2073 22.7136 18.0062 21.7532 18.756L18.3669 21.3957C18.1194 21.5891 17.7431 21.4435 17.7134 21.1433C17.7134 21.1433 16.3688 2.03089 16.2599 0.870383C16.151 -0.290128 14.3252 -0.290128 14.2163 0.870383L12.7628 21.1433C12.7351 21.4417 12.3568 21.5872 12.1093 21.3957L8.72305 18.756C7.76262 18.0062 6.4715 19.2073 7.27746 20.1007L10.1152 23.2506C10.3231 23.4809 10.1667 23.8309 9.84388 23.8585C9.84388 23.8585 2.18324 25.1093 0.935672 25.2106C-0.311891 25.3119 -0.311891 27.0103 0.935672 27.1116L9.84388 28.4637C10.1647 28.4895 10.3211 28.8414 10.1152 29.0716L7.27746 32.2216C6.4715 33.115 7.76262 34.316 8.72305 33.5663L11.9489 31.05C12.2024 30.8511 12.5905 31.0113 12.6024 31.3208L14.2103 46.0813C14.2598 47.3062 16.2124 47.3062 16.2619 46.0813L17.8699 31.3208C17.8818 31.0132 18.2699 30.8529 18.5233 31.05L21.7492 33.5663C22.7096 34.316 24.0007 33.115 23.1948 32.2216L20.3571 29.0716C20.1551 28.8414 20.3115 28.4895 20.6323 28.4637Z" fill="#D9D9D9"/>
</svg>
