<svg width="142" height="39" viewBox="0 0 142 39" fill="none" xmlns="http://www.w3.org/2000/svg">
<path d="M0.0399999 24.4799H7.96C7.96 24.5333 7.94667 24.6266 7.92 24.7599C7.92 24.8666 7.92 24.9466 7.92 24.9999C7.92 25.5599 8.10667 26.0266 8.48 26.3999C8.96 26.8266 9.61333 27.0399 10.44 27.0399C11.1867 27.0399 11.8267 26.8933 12.36 26.5999C12.92 26.3066 13.2667 25.8266 13.4 25.1599C13.4 25.1599 13.4 25.1199 13.4 25.0399C13.4 24.9866 13.4 24.9599 13.4 24.9599C13.4 24.4266 13.08 24.0399 12.44 23.7999C11.8267 23.5333 10.8133 23.2533 9.4 22.9599C8.2 22.7199 7.24 22.5066 6.52 22.3199C5.8 22.1066 5.08 21.8133 4.36 21.4399C3.64 21.0399 3.06667 20.5199 2.64 19.8799C2.21333 19.2399 2 18.4533 2 17.5199C2 17.1733 2.04 16.7866 2.12 16.3599C2.33333 15.0799 2.81333 13.9866 3.56 13.0799C4.30667 12.1733 5.21333 11.4533 6.28 10.9199C7.34667 10.3866 8.48 10.0133 9.68 9.79994C10.88 9.55994 12.0667 9.43994 13.24 9.43994C14.4667 9.43994 15.6133 9.51994 16.68 9.67994C17.7467 9.83994 18.72 10.1333 19.6 10.5599C20.48 10.9866 21.1867 11.5999 21.72 12.3999C22.2533 13.1733 22.52 14.1466 22.52 15.3199C22.52 15.3999 22.5067 15.5199 22.48 15.6799C22.48 15.8666 22.48 15.9866 22.48 16.0399H14.92C14.92 15.3466 14.7467 14.8399 14.4 14.5199C14.0267 14.1733 13.4933 13.9999 12.8 13.9999C12.0533 13.9999 11.4533 14.1199 11 14.3599C10.5467 14.5999 10.2667 14.9733 10.16 15.4799C10.16 15.9599 10.48 16.3333 11.12 16.5999C11.7867 16.8666 12.8133 17.1599 14.2 17.4799C15.4267 17.7733 16.4267 18.0399 17.2 18.2799C17.9733 18.4933 18.7333 18.8133 19.48 19.2399C20.2267 19.6399 20.8267 20.1733 21.28 20.8399C21.7333 21.4799 21.96 22.2666 21.96 23.1999C21.96 23.5466 21.9333 23.9066 21.88 24.2799C21.48 26.5466 20.2133 28.3333 18.08 29.6399C15.9467 30.9466 13.0133 31.5999 9.28 31.5999C8.05333 31.5999 6.89333 31.4933 5.8 31.2799C4.70667 31.0933 3.72 30.7599 2.84 30.2799C1.96 29.7999 1.26667 29.1466 0.76 28.3199C0.253333 27.4933 0 26.4933 0 25.3199C0 25.2666 0 25.1333 0 24.9199C0.0266666 24.7599 0.0399999 24.6133 0.0399999 24.4799Z" fill="white"/>
<path d="M23.9331 30.9999L27.6131 10.0399H35.2131L34.6531 13.3199C35.8531 12.0133 37.0665 11.0399 38.2931 10.3999C39.5198 9.75994 40.8931 9.43994 42.4131 9.43994C44.7065 9.43994 46.4131 9.98661 47.5331 11.0799C48.6531 12.1466 49.2131 13.7199 49.2131 15.7999C49.2131 16.5999 49.1198 17.4799 48.9331 18.4399L46.7331 30.9999H38.4131L40.3731 19.9199C40.4531 19.4133 40.4931 18.9466 40.4931 18.5199C40.4931 17.7199 40.3065 17.1066 39.9331 16.6799C39.5865 16.2266 38.9865 15.9999 38.1331 15.9999C36.9331 15.9999 36.0265 16.3599 35.4131 17.0799C34.8265 17.7999 34.3998 18.8799 34.1331 20.3199L32.2531 30.9999H23.9331Z" fill="white"/>
<path d="M74.0528 30.9999H65.4528V28.7599C64.1461 29.7999 62.8261 30.5333 61.4928 30.9599C60.1861 31.3866 58.7061 31.5999 57.0528 31.5999C55.1595 31.5999 53.5995 31.1733 52.3728 30.3199C51.1728 29.4666 50.5728 28.1999 50.5728 26.5199C50.5728 26.1466 50.6128 25.7333 50.6928 25.2799C50.9328 23.9199 51.4261 22.7999 52.1728 21.9199C52.9195 21.0399 53.7995 20.3599 54.8128 19.8799C55.8528 19.3999 56.9061 19.0666 57.9728 18.8799C59.0395 18.6666 60.3195 18.4666 61.8128 18.2799C63.6261 18.0666 64.9461 17.8399 65.7728 17.5999C66.6261 17.3333 67.1061 16.8533 67.2128 16.1599C67.2128 16.1066 67.2261 16.0533 67.2528 15.9999C67.2528 15.9466 67.2528 15.9066 67.2528 15.8799C67.2528 15.3199 66.9995 14.9466 66.4928 14.7599C65.9861 14.5466 65.4261 14.4399 64.8128 14.4399C64.0661 14.4399 63.3861 14.5866 62.7728 14.8799C62.1861 15.1466 61.7728 15.6799 61.5328 16.4799H53.5328C53.9328 14.1599 55.1461 12.4133 57.1728 11.2399C59.1995 10.0399 62.2128 9.43994 66.2128 9.43994C68.0528 9.43994 69.5861 9.57327 70.8128 9.83994C72.0661 10.0799 73.0261 10.4399 73.6928 10.9199C74.3861 11.3733 74.8661 11.9333 75.1328 12.5999C75.4261 13.2399 75.5728 13.9999 75.5728 14.8799C75.5728 15.6533 75.4528 16.7333 75.2128 18.1199L73.4928 27.9199C73.3861 28.4266 73.3328 28.7866 73.3328 28.9999C73.3328 29.5599 73.5995 30.0933 74.1328 30.5999L74.0528 30.9999ZM61.6528 26.8799C63.0395 26.8799 64.1061 26.4133 64.8528 25.4799C65.6261 24.5199 66.0928 23.2666 66.2528 21.7199C65.5595 22.0133 64.5328 22.3066 63.1728 22.5999C61.9461 22.8666 61.0261 23.1599 60.4128 23.4799C59.8261 23.7733 59.4661 24.3199 59.3328 25.1199C59.3328 25.1733 59.3328 25.2133 59.3328 25.2399C59.3061 25.3466 59.2928 25.3999 59.2928 25.3999C59.2928 25.8533 59.5061 26.2133 59.9328 26.4799C60.3595 26.7466 60.9328 26.8799 61.6528 26.8799Z" fill="white"/>
<path d="M80.8125 10.0399H88.2925L87.7725 13.1599H87.8525C88.5992 11.9599 89.6525 11.0399 91.0125 10.3999C92.3725 9.75994 93.7192 9.43994 95.0525 9.43994C97.5858 9.43994 99.4925 10.2133 100.772 11.7599C102.079 13.2799 102.732 15.2666 102.732 17.7199C102.732 18.5733 102.652 19.4533 102.493 20.3599C102.146 22.3333 101.559 24.0533 100.732 25.5199C99.9325 26.9599 98.9858 28.1333 97.8925 29.0399C96.7992 29.9199 95.6392 30.5733 94.4125 30.9999C93.1858 31.3999 91.9458 31.5999 90.6925 31.5999C88.5592 31.5999 86.9325 30.7066 85.8125 28.9199L84.2125 38.1199H75.8925L80.8125 10.0399ZM89.6925 25.2399C90.8125 25.2399 91.7725 24.8133 92.5725 23.9599C93.3725 23.0799 93.8925 21.9199 94.1325 20.4799C94.2392 19.9199 94.2925 19.3999 94.2925 18.9199C94.2925 17.7999 94.0392 16.9733 93.5325 16.4399C93.0258 15.8799 92.3058 15.5999 91.3725 15.5999C90.3592 15.5999 89.4658 16.0399 88.6925 16.9199C87.9192 17.7999 87.4125 18.9333 87.1725 20.3199C87.0925 20.8533 87.0525 21.3599 87.0525 21.8399C87.0525 22.9066 87.2792 23.7466 87.7325 24.3599C88.1858 24.9466 88.8392 25.2399 89.6925 25.2399Z" fill="white"/>
<path d="M116.332 2.03994C117.892 2.79994 117.972 4.43994 117.292 5.31994C116.612 6.19994 114.612 6.27994 114.092 4.63994C113.772 3.43994 115.172 1.63994 113.612 1.63994C111.092 1.63994 111.412 4.55994 111.412 7.27994V11.2399H115.252V11.4399H111.412V26.3999C111.412 29.6399 111.772 30.7999 113.932 30.7999V30.9999H102.852V30.7999C105.012 30.7999 105.372 29.6399 105.372 26.3999V11.4399H103.172V11.2399H105.372V9.11994C105.372 2.39994 110.052 1.43994 112.732 1.43994C114.692 1.43994 116.052 1.87994 116.332 2.03994Z" fill="white"/>
<path d="M139.57 31.0799C140.37 31.0799 141.05 30.7999 141.33 30.6799V30.8799C140.73 31.1999 139.97 31.3999 138.81 31.3999C136.09 31.3999 131.45 30.9999 131.45 25.0799C131.45 25.0799 131.45 14.9199 131.45 11.4399H129.61V11.2399C130.25 11.2399 131.45 11.2399 131.45 11.2399C131.45 11.2399 131.45 10.9599 131.45 10.7599C133.57 10.7599 136.49 8.87994 137.25 6.35994H137.45V11.2399H141.01V11.4399H137.45V25.8799C137.45 28.5599 137.65 31.0799 139.57 31.0799Z" fill="white"/>
<path d="M125.392 12.8928L134.069 12.153C134.724 12.0976 134.724 11.1683 134.069 11.1129L125.392 10.3732C125.224 10.3591 125.141 10.1666 125.25 10.0406L126.739 8.31717C127.163 7.82837 126.485 7.17127 125.98 7.58146L124.203 9.02569C124.073 9.13151 123.875 9.05189 123.86 8.88761L123.097 0.476203C123.039 -0.158734 122.081 -0.158734 122.024 0.476203L121.261 8.88761C121.246 9.05088 121.047 9.1305 120.917 9.02569L119.14 7.58146C118.635 7.17127 117.958 7.82837 118.381 8.31717L119.871 10.0406C119.98 10.1666 119.898 10.358 119.728 10.3732L111.051 11.1129C110.396 11.1683 110.396 12.0976 111.051 12.153L119.728 12.8928C119.897 12.9069 119.979 13.0994 119.871 13.2254L118.381 14.9488C117.958 15.4376 118.635 16.0947 119.14 15.6845L120.833 14.3078C120.966 14.1989 121.17 14.2866 121.176 14.4559L122.02 36.4973C122.046 37.1676 123.072 37.1676 123.098 36.4973L123.942 14.4559C123.948 14.2876 124.152 14.1999 124.285 14.3078L125.978 15.6845C126.483 16.0947 127.16 15.4376 126.737 14.9488L125.248 13.2254C125.141 13.0994 125.224 12.9069 125.392 12.8928Z" fill="white"/>
</svg>
