<svg width="155" height="69" viewBox="0 0 155 69" fill="none" xmlns="http://www.w3.org/2000/svg">
<path d="M0.273538 19.607C0.273538 15.3661 4.17768 12.9288 10.9664 12.9288C17.8795 12.9288 21.6841 15.4636 21.6841 20.1189H15.0197C15.0197 18.4371 13.2293 17.6084 10.668 17.6084C8.20615 17.6084 6.86332 18.3884 6.86332 19.5339C6.86332 20.7769 8.60402 21.0207 10.668 21.1669C15.4673 21.5325 22.0323 21.4106 22.0323 26.8214C22.0323 31.6229 18.2276 33.9871 11.1902 33.9871C3.80467 33.9871 0 31.3792 0 26.6995H6.68925C6.68925 28.43 8.35535 29.3075 11.6129 29.3075C14.1991 29.3075 15.4176 28.7469 15.4176 27.6257C15.4176 26.139 13.3039 25.9196 10.5685 25.749C6.21678 25.4809 0.273538 25.3347 0.273538 19.607Z" fill="white"/>
<path d="M24.2775 33.6946V13.2213H32.5085L40.5654 25.7734V13.2213H46.832V33.6946H38.6009L30.544 21.045V33.6946H24.2775Z" fill="white"/>
<path d="M48.3325 33.6946L56.7625 13.2213H67.4305L75.8604 33.6946H68.8479L67.1072 29.2587H57.0609L55.3202 33.6946H48.3325ZM58.9259 24.5304H65.2422L62.8301 18.4371H61.338L58.9259 24.5304Z" fill="white"/>
<path d="M77.3629 33.6946V13.2213H91.4875C96.063 13.2213 98.8979 15.878 98.8979 20.2407C98.8979 24.7253 95.9138 27.7963 91.4875 27.7963H83.9279V33.6946H77.3629ZM83.9279 22.8243H89.5478C91.3383 22.8243 92.3329 22.0199 92.3329 20.6551C92.3329 19.2658 91.2885 18.4859 89.5478 18.4859H83.9279V22.8243Z" fill="white"/>
<path d="M101.137 33.6946V13.2213H120.708V18.3396H107.702V21.5569H118.519V26.0902H107.702V33.6946H101.137Z" fill="white"/>
<path d="M122.653 33.6946V21.5569H129.218V33.6946H122.653Z" fill="white"/>
<path d="M139.707 33.6946V18.4859H130.954V13.2213H155V18.4859H146.272V33.6946H139.707Z" fill="white"/>
<path d="M126.325 0L126.493 4.50845C126.596 7.26671 128.824 9.47877 131.601 9.57959L136.272 9.74918L131.601 9.91878C128.824 10.0196 126.596 12.2317 126.493 14.9899L126.325 19.4984L126.157 14.9899C126.054 12.2317 123.826 10.0196 121.049 9.91878L116.378 9.74918L121.049 9.57959C123.826 9.47877 126.054 7.26671 126.157 4.50845L126.325 0Z" fill="white"/>
<g opacity="0.2">
<path d="M30.9749 43.7044C32.1449 43.2545 33.1949 45.3237 31.8749 45.8335C29.9849 46.5833 28.2149 47.5729 26.5949 48.8024C26.8349 49.5221 26.8949 50.2719 26.7749 51.0516C26.4449 53.5406 23.9549 56.7494 21.3449 54.5902C18.5549 52.2811 20.5349 49.4022 23.3849 47.0931C22.6949 46.1934 21.7949 45.4737 21.2549 44.4241C20.3549 42.5948 20.7149 39.7159 23.2949 39.9258C24.0749 39.9558 24.8249 40.6155 25.1549 41.3053C25.3949 41.7851 25.4549 42.6847 24.6749 42.6248C23.0249 42.5048 23.5049 44.3941 24.1349 45.1438C24.3749 45.4437 24.6149 45.7136 24.8849 45.9835C27.4349 44.7839 29.8949 44.1242 30.9749 43.7044Z" fill="#F3F3F5"/>
<path d="M51.86 43.9143C52.97 43.4045 54.17 45.2038 52.88 45.8036C50.21 47.0631 47.72 48.5925 45.23 50.1519C43.67 51.1115 41.96 52.461 40.16 52.8809C38.36 53.3007 36.71 51.6213 36.98 49.852C37.13 48.8324 37.55 47.8128 38.06 46.8232C35.12 48.4426 32.54 50.5717 30.35 53.1808C29.48 54.2304 27.59 51.9512 27.83 51.0216C28.49 48.4126 29.75 45.8935 31.07 43.5544C31.79 42.2649 34.31 44.4541 33.74 45.4737C33.68 45.5636 33.65 45.6236 33.62 45.6836C35.93 44.0942 38.45 42.8647 41.15 42.025C42.29 41.6651 43.97 43.4644 43.31 44.544C42.41 45.9835 41.66 47.4529 40.91 48.9524C44.48 47.183 48.35 45.5636 51.86 43.9143Z" fill="#F3F3F5"/>
<path d="M71.3129 44.0042C72.3029 43.1046 74.0729 44.8439 73.1429 45.7136C70.8029 47.8128 68.3729 49.942 65.6429 51.5614C64.4129 52.3111 62.9129 53.1208 61.3829 52.9408C59.8529 52.7609 58.5629 51.5014 58.1429 50.0619C57.8429 49.1023 57.9629 48.2326 58.2329 47.363C55.5029 49.1623 53.2229 51.8313 50.1329 53.0608C49.0529 53.4806 47.6129 51.7413 47.8229 50.7517C48.5129 47.6928 50.1629 44.544 52.7429 42.6548C54.7529 41.1253 57.3629 41.5152 58.8329 43.4045C59.1029 43.3145 59.3729 43.2245 59.6729 43.1346C60.0329 43.0446 60.4529 43.1945 60.8129 43.4644C61.4129 43.8843 61.9829 44.514 62.0129 45.0538C62.0429 45.2338 62.0429 45.3837 61.9829 45.5337C61.8629 46.3433 61.5929 47.0931 61.3229 47.8728C61.0529 48.6525 60.9029 49.4022 60.7529 50.1819C60.8129 50.1819 60.8429 50.1819 60.8729 50.1819C63.9629 49.822 69.3929 45.7436 71.3129 44.0042ZM52.8029 47.4229C54.1229 46.3433 55.4129 45.2338 56.8529 44.3641C56.8229 44.3641 56.8229 44.3641 56.8229 44.3341C56.6129 44.3941 56.4029 44.4241 56.2229 44.4541C55.6529 44.574 55.1429 44.9639 54.7229 45.3537C54.0329 45.9235 53.4029 46.6132 52.8629 47.333C52.8329 47.363 52.8329 47.393 52.8029 47.4229Z" fill="#F3F3F5"/>
<path d="M83.3532 40.6755C84.7332 41.995 84.7932 43.9143 84.1632 45.5936C82.9932 48.6525 79.6932 52.7009 76.0932 52.641C75.4632 52.641 74.6532 51.8912 74.2932 51.1715C71.2932 55.7898 68.9832 60.9778 67.2132 66.1058C66.7632 67.4553 64.1832 65.3561 64.5732 64.1866C67.2732 56.2696 69.9432 48.3226 72.6432 40.4056C73.0932 39.0861 75.7032 41.1853 75.3132 42.3549C74.9532 43.3745 74.5932 44.4241 74.2332 45.4437C75.3732 43.9742 76.6332 42.5948 78.0432 41.4252C79.6632 40.0158 81.4932 38.9362 83.3532 40.6755ZM81.3732 43.9443C81.5232 43.6144 81.5832 43.2245 81.6432 42.8647C81.5232 42.9246 81.4032 43.0146 81.2832 43.1046C80.9832 43.3145 80.7132 43.5544 80.4132 43.7943C79.1832 44.8439 78.1032 46.0435 77.0832 47.273C76.4232 48.1127 75.7632 49.0123 75.1332 49.912C77.8632 49.5821 80.4132 46.1934 81.3732 43.9443Z" fill="#F3F3F5"/>
<path d="M94.1921 48.5025C95.6021 49.4322 95.3921 51.6513 93.5321 50.4218C92.5121 49.7621 91.1621 50.0319 89.9921 50.4518C91.4621 52.581 91.3121 55.4899 90.9821 58.2788C90.5021 62.0574 89.7221 65.8959 87.1121 68.8048C86.8421 69.1347 86.2421 68.9847 85.9421 68.8048C81.0221 65.776 82.4021 59.1185 83.5421 54.4103C84.8321 49.0123 87.2321 43.9742 90.2621 39.326C90.8921 38.3364 93.3821 40.5855 92.6321 41.6951C91.4321 43.5844 90.3221 45.5037 89.3621 47.5129C91.0121 47.243 92.5721 47.4529 94.1921 48.5025ZM88.4921 54.6802C88.5821 53.6606 88.8821 51.6213 87.8921 50.9016C87.5921 51.7113 87.2921 52.521 87.0221 53.3307C86.2721 55.6998 85.7021 58.1289 85.4021 60.5879C85.3121 61.5476 84.8321 64.2465 85.3421 65.686C86.7821 63.7367 87.5021 61.3976 87.9221 58.9985C88.1921 57.5591 88.3721 56.1196 88.4921 54.6802Z" fill="#F3F3F5"/>
<path d="M108.287 44.2142C109.307 43.3445 110.957 44.9039 109.997 45.7136C108.347 47.1231 106.607 48.4725 104.807 49.7021C103.337 50.6617 101.687 51.8613 99.9172 52.2211C97.9372 52.641 96.0172 50.7817 95.9872 48.7724C95.9272 46.5233 97.6372 43.9143 98.7472 42.025C99.4672 40.7355 101.987 42.9246 101.387 43.9443C100.517 45.4737 99.7372 46.9431 99.1372 48.5925C99.0472 48.8024 98.9572 49.0123 98.8972 49.2522C100.967 48.8624 105.887 46.2234 108.287 44.2142ZM103.907 38.8462C103.517 40.1657 100.907 38.0965 101.267 36.8969C101.927 34.7078 102.797 32.6086 103.907 30.5993C104.627 29.3098 107.147 31.499 106.577 32.5186C105.467 34.5578 104.567 36.657 103.907 38.8462Z" fill="#F3F3F5"/>
<path d="M134.155 30.8692C134.755 31.1991 135.625 31.9788 135.535 32.7585C135.475 33.4782 134.785 33.5382 134.215 33.2383C131.545 31.8289 128.545 31.529 125.575 31.349C122.635 31.1391 119.695 31.0791 116.785 31.1391C116.725 31.1391 116.665 31.1391 116.635 31.1391C112.135 41.0654 108.355 51.4114 108.535 62.4172C108.565 64.0666 105.835 62.2073 105.805 61.0378C105.625 50.6017 108.925 40.7355 113.065 31.2591C108.145 31.529 103.255 32.1288 98.4252 33.0584C97.1952 33.2983 95.2152 30.6593 96.4752 30.4194C102.355 29.2798 108.325 28.6201 114.325 28.4402C115.405 26.0711 116.515 23.7319 117.655 21.3928C118.285 20.1033 120.805 22.2625 120.295 23.3421C119.485 24.9915 118.705 26.6708 117.895 28.3802C123.325 28.2902 129.355 28.3502 134.155 30.8692Z" fill="#F3F3F5"/>
</g>
</svg>
