<svg width="118" height="45" viewBox="0 0 118 45" fill="none" xmlns="http://www.w3.org/2000/svg">
<g opacity="0.2">
<path d="M24.1168 25.2346C24.9924 24.8979 25.7782 26.447 24.7903 26.8287C23.3759 27.39 22.0512 28.1309 20.8388 29.0514C21.0184 29.5903 21.0633 30.1515 20.9735 30.7353C20.7266 32.5988 18.8631 35.0011 16.9098 33.3846C14.8218 31.6558 16.3036 29.5004 18.4365 27.7717C17.9201 27.0981 17.2466 26.5593 16.8424 25.7735C16.1689 24.4039 16.4383 22.2486 18.3691 22.4057C18.9529 22.4282 19.5142 22.9221 19.7611 23.4385C19.9408 23.7977 19.9857 24.4713 19.4019 24.4264C18.1671 24.3366 18.5263 25.751 18.9978 26.3123C19.1774 26.5368 19.357 26.7389 19.5591 26.941C21.4675 26.0429 23.3085 25.549 24.1168 25.2346Z" fill="#F3F3F5"/>
<path d="M39.7469 25.3918C40.5777 25.0101 41.4757 26.3572 40.5103 26.8062C38.5121 27.7492 36.6486 28.8942 34.7851 30.0617C33.6176 30.7802 32.3379 31.7905 30.9908 32.1048C29.6437 32.4192 28.4089 31.1619 28.6109 29.8372C28.7232 29.0739 29.0375 28.3105 29.4192 27.5696C27.2189 28.782 25.2881 30.3761 23.6491 32.3293C22.998 33.1152 21.5836 31.4088 21.7632 30.7128C22.2571 28.7595 23.2001 26.8736 24.188 25.1224C24.7268 24.157 26.6127 25.7959 26.1862 26.5593C26.1413 26.6266 26.1188 26.6715 26.0964 26.7164C27.8251 25.5265 29.7111 24.606 31.7317 23.9773C32.5849 23.7079 33.8422 25.055 33.3482 25.8633C32.6747 26.941 32.1134 28.0411 31.5521 29.1637C34.2238 27.839 37.1201 26.6266 39.7469 25.3918Z" fill="#F3F3F5"/>
<path d="M54.3052 25.4592C55.0461 24.7856 56.3708 26.0878 55.6748 26.7389C53.9236 28.3105 52.105 29.9046 50.0619 31.117C49.1414 31.6782 48.0188 32.2844 46.8737 32.1497C45.7287 32.015 44.7633 31.0721 44.449 29.9944C44.2245 29.2759 44.3143 28.6248 44.5163 27.9737C42.4732 29.3208 40.7669 31.319 38.4544 32.2395C37.6461 32.5539 36.5685 31.2517 36.7256 30.5108C37.242 28.2207 38.4768 25.8633 40.4077 24.4488C41.9119 23.3038 43.8652 23.5957 44.9654 25.0101C45.1674 24.9428 45.3695 24.8754 45.594 24.8081C45.8634 24.7407 46.1777 24.853 46.4472 25.055C46.8962 25.3693 47.3228 25.8408 47.3452 26.245C47.3677 26.3797 47.3677 26.4919 47.3228 26.6042C47.233 27.2104 47.0309 27.7717 46.8288 28.3554C46.6268 28.9392 46.5145 29.5004 46.4023 30.0842C46.4472 30.0842 46.4696 30.0842 46.4921 30.0842C48.8046 29.8148 52.8683 26.7613 54.3052 25.4592ZM40.4526 28.0186C41.4405 27.2104 42.4059 26.3797 43.4836 25.7286C43.4611 25.7286 43.4611 25.7286 43.4611 25.7061C43.3039 25.751 43.1468 25.7735 43.0121 25.7959C42.5855 25.8857 42.2038 26.1776 41.8895 26.4695C41.3731 26.8961 40.9016 27.4124 40.4975 27.9513C40.475 27.9737 40.475 27.9962 40.4526 28.0186Z" fill="#F3F3F5"/>
<path d="M63.316 22.967C64.3488 23.9549 64.3937 25.3918 63.9222 26.6491C63.0466 28.9392 60.577 31.9701 57.8828 31.9252C57.4113 31.9252 56.8051 31.3639 56.5357 30.8251C54.2905 34.2826 52.5617 38.1668 51.2371 42.006C50.9003 43.0163 48.9695 41.4447 49.2613 40.5691C51.282 34.6419 53.2802 28.6922 55.3008 22.765C55.6376 21.7771 57.5909 23.3487 57.299 24.2243C57.0296 24.9877 56.7602 25.7735 56.4908 26.5368C57.3439 25.4367 58.2869 24.4039 59.3421 23.5283C60.5545 22.4731 61.924 21.6648 63.316 22.967ZM61.8342 25.4142C61.9465 25.1673 61.9914 24.8754 62.0363 24.606C61.9465 24.6509 61.8567 24.7182 61.7669 24.7856C61.5424 24.9428 61.3403 25.1224 61.1158 25.302C60.1953 26.0878 59.387 26.9859 58.6237 27.9064C58.1297 28.535 57.6358 29.2086 57.1643 29.8821C59.2074 29.6352 61.1158 27.0981 61.8342 25.4142Z" fill="#F3F3F5"/>
<path d="M71.4277 28.8269C72.483 29.5229 72.3258 31.1843 70.9338 30.2638C70.1705 29.7699 69.1601 29.9719 68.2845 30.2862C69.3846 31.8803 69.2724 34.0581 69.0254 36.1461C68.6662 38.975 68.0825 41.8488 66.1292 44.0266C65.9271 44.2736 65.4781 44.1613 65.2535 44.0266C61.5715 41.759 62.6043 36.7748 63.4574 33.2499C64.4228 29.2086 66.219 25.4367 68.4866 21.9567C68.9581 21.2158 70.8216 22.8997 70.2603 23.7304C69.3622 25.1448 68.5315 26.5817 67.813 28.086C69.0479 27.8839 70.2154 28.0411 71.4277 28.8269ZM67.1619 33.4519C67.2293 32.6886 67.4538 31.1619 66.7129 30.623C66.4884 31.2292 66.2639 31.8354 66.0618 32.4416C65.5005 34.2153 65.0739 36.0339 64.8494 37.8749C64.7821 38.5933 64.4228 40.614 64.8045 41.6917C65.8822 40.2323 66.421 38.4811 66.7354 36.685C66.9374 35.6073 67.0721 34.5296 67.1619 33.4519Z" fill="#F3F3F5"/>
<path d="M81.9763 25.6163C82.7397 24.9652 83.9745 26.1327 83.2561 26.7389C82.0212 27.7941 80.719 28.8044 79.3719 29.725C78.2718 30.4434 77.037 31.3415 75.7123 31.6109C74.2305 31.9252 72.7936 30.5332 72.7712 29.029C72.7263 27.3451 74.006 25.3918 74.8367 23.9773C75.3755 23.0119 77.2615 24.6509 76.8124 25.4142C76.1613 26.5593 75.5776 27.6594 75.1286 28.8942C75.0612 29.0514 74.9939 29.2086 74.949 29.3882C76.4981 29.0963 80.1802 27.1206 81.9763 25.6163ZM78.6984 21.5975C78.4065 22.5853 76.4532 21.0362 76.7226 20.1381C77.2166 18.4992 77.8677 16.9275 78.6984 15.4233C79.2372 14.4579 81.1232 16.0968 80.6966 16.8602C79.8659 18.3869 79.1923 19.9585 78.6984 21.5975Z" fill="#F3F3F5"/>
<path d="M101.336 15.6253C101.785 15.8723 102.436 16.4561 102.368 17.0398C102.323 17.5786 101.807 17.6235 101.38 17.399C99.3823 16.3438 97.1371 16.1193 94.9144 15.9846C92.7142 15.8274 90.5139 15.7825 88.3361 15.8274C88.2912 15.8274 88.2463 15.8274 88.2238 15.8274C84.8561 23.2589 82.0272 31.0047 82.1619 39.2444C82.1843 40.4793 80.1413 39.0873 80.1188 38.2117C79.9841 30.3985 82.4538 23.0119 85.5521 15.9172C81.87 16.1193 78.2104 16.5683 74.5957 17.2643C73.6752 17.4439 72.1934 15.4682 73.1363 15.2886C77.5369 14.4354 82.0047 13.9415 86.4951 13.8068C87.3033 12.0331 88.134 10.2819 88.9872 8.53064C89.4587 7.56521 91.3446 9.18173 90.9629 9.98999C90.3567 11.2248 89.773 12.4821 89.1668 13.7619C93.2305 13.6945 97.7433 13.7394 101.336 15.6253Z" fill="#F3F3F5"/>
</g>
<path d="M97.7605 9.97109L100.705 9.49745C101.141 9.46195 101.141 8.86699 100.705 8.83149L97.7605 8.35785C97.6484 8.34881 97.5938 8.22557 97.6657 8.14491L98.6568 7.04144C98.9383 6.72847 98.4874 6.30774 98.1519 6.57038L96.9693 7.49509C96.8828 7.56284 96.7514 7.51186 96.7411 7.40668C96.7411 7.40668 96.2715 0.71144 96.2334 0.304903C96.1954 -0.101634 95.5577 -0.101634 95.5197 0.304903L95.0121 7.40668C95.0024 7.51122 94.8703 7.5622 94.7838 7.49509L93.6012 6.57038C93.2658 6.30774 92.8148 6.72847 93.0963 7.04144L94.0874 8.14491C94.16 8.22557 94.1054 8.34817 93.9926 8.35785C93.9926 8.35785 91.3172 8.796 90.8815 8.83149C90.4458 8.86699 90.4458 9.46195 90.8815 9.49745L93.9926 9.97109C94.1047 9.98013 94.1593 10.1034 94.0874 10.184L93.0963 11.2875C92.8148 11.6005 93.2658 12.0212 93.6012 11.7586L94.7278 10.8771C94.8163 10.8074 94.9519 10.8635 94.956 10.9719L95.5176 16.1427C95.5349 16.5718 96.2168 16.5718 96.2341 16.1427L96.7957 10.9719C96.7998 10.8642 96.9354 10.808 97.0239 10.8771L98.1505 11.7586C98.486 12.0212 98.9369 11.6005 98.6554 11.2875L97.6643 10.184C97.5938 10.1034 97.6484 9.98013 97.7605 9.97109Z" fill="white"/>
<path d="M0.205806 5.12645C0.205806 1.87097 3.14323 0 8.25097 0C13.4523 0 16.3148 1.94581 16.3148 5.51936H11.3006C11.3006 4.22839 9.95355 3.59226 8.02645 3.59226C6.17419 3.59226 5.16387 4.19097 5.16387 5.07032C5.16387 6.02452 6.47355 6.21161 8.02645 6.32387C11.6374 6.60452 16.5768 6.51096 16.5768 10.6645C16.5768 14.3503 13.7142 16.1652 8.41935 16.1652C2.86258 16.1652 0 14.1632 0 10.571H5.0329C5.0329 11.8994 6.28645 12.5729 8.73742 12.5729C10.6832 12.5729 11.6 12.1426 11.6 11.2819C11.6 10.1406 10.0097 9.97226 7.95161 9.84129C4.67742 9.63548 0.205806 9.52323 0.205806 5.12645Z" fill="white"/>
<path d="M18.2661 15.9406V0.224516H24.459L30.5209 9.86V0.224516H35.2357V15.9406H29.0428L22.9809 6.23032V15.9406H18.2661Z" fill="white"/>
<path d="M36.3647 15.9406L42.7073 0.224516H50.7338L57.0764 15.9406H51.8002L50.4906 12.5355H42.9318L41.6222 15.9406H36.3647ZM44.3351 8.9058H49.0873L47.2725 4.22839H46.1499L44.3351 8.9058Z" fill="white"/>
<path d="M58.2068 15.9406V0.224516H68.8339C72.2765 0.224516 74.4094 2.26387 74.4094 5.6129C74.4094 9.05548 72.1642 11.4129 68.8339 11.4129H63.1462V15.9406H58.2068ZM63.1462 7.59613H67.3746C68.7217 7.59613 69.4701 6.97871 69.4701 5.93097C69.4701 4.86452 68.6842 4.26581 67.3746 4.26581H63.1462V7.59613Z" fill="white"/>
<path d="M76.0943 15.9406V0.224516H90.8188V4.15355H81.0337V6.62323H89.1724V10.1032H81.0337V15.9406H76.0943Z" fill="white"/>
<path d="M106.271 15.9406V4.26581H99.6852V0.224516H117.777V4.26581H111.21V15.9406H106.271Z" fill="white"/>
</svg>
