<svg width="11" height="14" viewBox="0 0 11 14" fill="none" xmlns="http://www.w3.org/2000/svg">
<path d="M6.61954 7.24707L10.6998 6.76362C11.1001 6.72739 11.1001 6.1201 10.6998 6.08387L6.61954 5.60041C6.51662 5.59119 6.46643 5.46539 6.5325 5.38306L7.44293 4.25674C7.70151 3.93729 7.28728 3.50784 6.97914 3.77592L5.89271 4.71978C5.8133 4.78894 5.69259 4.73691 5.68306 4.62954L5.21673 0.436219C5.18178 0.0212604 4.596 0.0212604 4.56106 0.436219L4.09473 4.62954C4.08583 4.73625 3.96448 4.78828 3.88506 4.71978L2.79864 3.77592C2.49051 3.50784 2.07627 3.93729 2.33485 4.25674L3.24529 5.38306C3.312 5.46539 3.26181 5.59053 3.15825 5.60041L0.300195 6.08387C-0.100065 6.1201 -0.100065 6.72739 0.300195 6.76362L3.15825 7.24707C3.26117 7.2563 3.31136 7.3821 3.24529 7.46444L2.33485 8.59075C2.07627 8.9102 2.49051 9.33965 2.79864 9.07158L3.8336 8.17184C3.91493 8.10071 4.03945 8.15801 4.04326 8.26866L4.55915 13.5465C4.57503 13.9845 5.20147 13.9845 5.21735 13.5465L5.73325 8.26866C5.73707 8.15867 5.86159 8.10136 5.94291 8.17184L6.97787 9.07158C7.28601 9.33965 7.70024 8.9102 7.44166 8.59075L6.53123 7.46444C6.46642 7.3821 6.51662 7.2563 6.61954 7.24707Z" fill="white"/>
</svg>
