<svg width="86" height="86" viewBox="0 0 86 86" fill="none" xmlns="http://www.w3.org/2000/svg">
<circle cx="43" cy="43" r="41.5" fill="#171A1F" stroke="white" stroke-width="3"/>
<path d="M47.2657 44.3445L60.9903 42.692C62.3366 42.5682 62.3366 40.4923 60.9903 40.3685L47.2657 38.716C46.9195 38.6844 46.7507 38.2544 46.973 37.973L50.0353 34.123C50.9051 33.0311 49.5118 31.5632 48.4753 32.4795L44.821 35.7058C44.5538 35.9422 44.1478 35.7643 44.1157 35.3974L42.5472 21.0638C42.4296 19.6454 40.4593 19.6454 40.3417 21.0638L38.7732 35.3974C38.7433 35.7621 38.3351 35.9399 38.0679 35.7058L34.4136 32.4795C33.3772 31.5632 31.9838 33.0311 32.8536 34.123L35.916 37.973C36.1404 38.2544 35.9715 38.6822 35.6232 38.716L26.0097 40.3685C24.6634 40.4923 24.6634 42.5682 26.0097 42.692L35.6232 44.3445C35.9694 44.3761 36.1382 44.8061 35.916 45.0875L32.8536 48.9375C31.9838 50.0294 33.3772 51.4974 34.4136 50.581L37.8949 47.5056C38.1684 47.2624 38.5872 47.4583 38.6001 47.8365L40.3353 65.8771C40.3888 67.3743 42.4959 67.3743 42.5493 65.8771L44.2846 47.8365C44.2974 47.4605 44.7162 47.2647 44.9898 47.5056L48.471 50.581C49.5075 51.4974 50.9008 50.0294 50.031 48.9375L46.9687 45.0875C46.7507 44.8061 46.9195 44.3761 47.2657 44.3445Z" fill="white"/>
</svg>
