<svg width="16" height="16" viewBox="0 0 16 16" fill="none" xmlns="http://www.w3.org/2000/svg">
<path d="M7.0489 3.59374C7.34825 2.67243 8.65166 2.67243 8.95102 3.59374L9.42188 5.04291C9.55576 5.45493 9.93971 5.7339 10.3729 5.7339H11.8967C12.8654 5.7339 13.2682 6.97351 12.4845 7.54291L11.2517 8.43855C10.9012 8.6932 10.7546 9.14456 10.8885 9.55659L11.3593 11.0058C11.6587 11.9271 10.6042 12.6932 9.82049 12.1238L8.58775 11.2282C8.23726 10.9735 7.76266 10.9735 7.41217 11.2282L6.17943 12.1238C5.39572 12.6932 4.34124 11.9271 4.64059 11.0058L5.11146 9.55659C5.24533 9.14456 5.09867 8.6932 4.74818 8.43855L3.51544 7.54291C2.73173 6.97351 3.1345 5.7339 4.10323 5.7339H5.62698C6.06021 5.7339 6.44416 5.45494 6.57804 5.04291L7.0489 3.59374Z" fill="#FFCE21"/>
</svg>
