<svg width="92" height="20" viewBox="0 0 92 20" fill="none" xmlns="http://www.w3.org/2000/svg">
<path d="M0.160905 11.538C0.160905 9.0424 2.45746 7.60815 6.45082 7.60815C10.5173 7.60815 12.7554 9.09977 12.7554 11.8392H8.83514C8.83514 10.8496 7.78194 10.3619 6.27529 10.3619C4.82715 10.3619 4.03725 10.8209 4.03725 11.495C4.03725 12.2264 5.06119 12.3699 6.27529 12.4559C9.09844 12.6711 12.9602 12.5993 12.9602 15.7834C12.9602 18.6088 10.7221 20.0001 6.58247 20.0001C2.23804 20.0001 0 18.4654 0 15.7117H3.93485C3.93485 16.73 4.91491 17.2463 6.83114 17.2463C8.35242 17.2463 9.06918 16.9164 9.06918 16.2567C9.06918 15.3818 7.82583 15.2527 6.21678 15.1523C3.65693 14.9945 0.160905 14.9085 0.160905 11.538Z" fill="#191919"/>
<path d="M14.2809 19.8279V7.78026H19.1226L23.862 15.1666V7.78026H27.5482V19.8279H22.7064L17.9671 12.3842V19.8279H14.2809Z" fill="#191919"/>
<path d="M28.4309 19.8279L33.3897 7.78026H39.665L44.6238 19.8279H40.4988L39.4748 17.2176H33.5652L32.5413 19.8279H28.4309ZM34.6623 14.4352H38.3777L36.9589 10.8496H36.0812L34.6623 14.4352Z" fill="#191919"/>
<path d="M45.5076 19.8279V7.78026H53.8161C56.5076 7.78026 58.1752 9.34359 58.1752 11.9109C58.1752 14.5499 56.4199 16.3571 53.8161 16.3571H49.3693V19.8279H45.5076ZM49.3693 13.4312H52.6752C53.7284 13.4312 54.3135 12.9579 54.3135 12.1547C54.3135 11.3372 53.6991 10.8782 52.6752 10.8782H49.3693V13.4312Z" fill="#191919"/>
<path d="M59.4925 19.8279V7.78026H71.0045V10.7922H63.3542V12.6854H69.7173V15.3531H63.3542V19.8279H59.4925Z" fill="#191919"/>
<path d="M72.1489 19.8279V12.6854H76.0106V19.8279H72.1489Z" fill="#191919"/>
<path d="M82.1804 19.8279V10.8782H77.0315V7.78026H91.1765V10.8782H86.0421V19.8279H82.1804Z" fill="#191919"/>
<path d="M74.3086 0.588257L74.4075 3.24129C74.4681 4.86441 75.7786 6.16612 77.412 6.22545L80.1597 6.32525L77.412 6.42505C75.7786 6.48437 74.4681 7.78608 74.4075 9.4092L74.3086 12.0622L74.2097 9.4092C74.1491 7.78608 72.8386 6.48437 71.2052 6.42505L68.4575 6.32525L71.2052 6.22545C72.8386 6.16612 74.1491 4.86441 74.2097 3.24129L74.3086 0.588257Z" fill="#191919"/>
</svg>
